<svg xmlns="http://www.w3.org/2000/svg" viewBox="0 20.649999618530273 86.6500015258789 37.849998474121094" data-asc="1.16" width="86.6500015258789" height="37.849998474121094"><defs/><g fill="#427538"><g transform="translate(0, 0)"><path d="M29.30 39.95Q40.70 39.95 40.70 47.20Q40.70 50.60 39.15 52.97Q37.60 55.35 33.60 56.67Q29.60 58.00 22.50 58.00L0 58.00Q0.40 48.30 0.40 39.85Q0.40 31.40 0 21.70L11.75 21.70L11.75 21.75L22.40 21.75Q28.60 21.75 32.18 22.77Q35.75 23.80 37.23 25.75Q38.70 27.70 38.70 30.70Q38.70 33.75 36.58 36.12Q34.45 38.50 29.30 39.95M11.75 30.85L11.75 35.50L21.35 35.50Q24.45 35.50 25.68 34.95Q26.90 34.40 26.90 32.95Q26.90 31.80 25.63 31.32Q24.35 30.85 21.35 30.85L11.75 30.85M21.35 48.85Q23.95 48.85 25.33 48.62Q26.70 48.40 27.30 47.82Q27.90 47.25 27.90 46.25Q27.90 44.95 26.48 44.37Q25.05 43.80 21.35 43.80L11.75 43.80L11.75 48.85L21.35 48.85ZM65.30 37.30L86.65 37.30L86.65 58.00L77.85 58.00L76.80 49.15Q75.30 53.90 71.45 56.20Q67.60 58.50 62.05 58.50Q57 58.50 53.08 56.25Q49.15 54.00 46.93 49.80Q44.70 45.60 44.70 40.00Q44.70 31.05 50.05 25.85Q55.40 20.65 66.70 20.65Q73.15 20.65 78.08 22.75Q83 24.85 86.45 29.25Q84.20 30.40 77.65 33.85L76.40 34.55Q74.45 32.60 71.85 31.62Q69.25 30.65 66.35 30.65Q61.55 30.65 59.20 33.17Q56.85 35.70 56.85 39.40Q56.85 43.40 59.38 45.85Q61.90 48.30 67.10 48.30Q69.35 48.30 71.48 47.65Q73.60 47.00 75.05 45.40L65.30 45.40L65.30 37.30Z"/></g></g></svg>